<svg height="auto" viewBox="0 0 200 100" xmlns="http://www.w3.org/2000/svg"><path d="M0 2.35c2.2.486 6.6 1.092 11 2.43 4.4 1.34 6.6 2.32 11 4.263 4.4 1.945 6.6 4.828 11 5.46 4.4.63 6.6-2.49 11-2.301 4.4.188 6.6.57 11 3.243 4.4 2.674 6.6 9.16 11 10.125 4.4.966 6.6-7.748 11-5.298s6.6 12.642 11 17.55c4.4 4.908 6.6 6.938 11 6.99 4.4.05 6.6-7.604 11-6.735 4.4.87 6.6 10.006 11 11.081 4.4 1.075 6.6-5.9 11-5.705 4.4.196 6.6 6.22 11 6.68 4.4.461 6.6-8.636 11-4.376 4.4 4.261 6.6 24.11 11 25.68 4.4 1.569 6.6-12.52 11-17.833 4.4-5.312 6.6-9.766 11-8.728 4.4 1.038 6.6 11.179 11 13.92 4.4 2.742 8.8-.168 11-.21L200 100H0Z" fill="#ee00171a"/><path d="M0 2.35c2.2.486 6.6 1.092 11 2.43 4.4 1.34 6.6 2.32 11 4.263 4.4 1.945 6.6 4.828 11 5.46 4.4.63 6.6-2.49 11-2.301 4.4.188 6.6.57 11 3.243 4.4 2.674 6.6 9.16 11 10.125 4.4.966 6.6-7.748 11-5.298s6.6 12.642 11 17.55c4.4 4.908 6.6 6.938 11 6.99 4.4.05 6.6-7.604 11-6.735 4.4.87 6.6 10.006 11 11.081 4.4 1.075 6.6-5.9 11-5.705 4.4.196 6.6 6.22 11 6.68 4.4.461 6.6-8.636 11-4.376 4.4 4.261 6.6 24.11 11 25.68 4.4 1.569 6.6-12.52 11-17.833 4.4-5.312 6.6-9.766 11-8.728 4.4 1.038 6.6 11.179 11 13.92 4.4 2.742 8.8-.168 11-.21" fill="none" stroke="#ee0017" stroke-width="2"/></svg>